<svg width="400" height="100" viewBox="0 0 400 100" fill="none" xmlns="http://www.w3.org/2000/svg">
  <!-- Elemento gráfico con formas trapezoidales apiladas -->
  
  <!-- Capa superior - gris oscuro -->
  <path d="M20 20 L60 15 L100 25 L95 35 L55 40 L20 35 L20 20 Z" fill="#374151"/>
  
  <!-- Capa media-superior - gris medio -->
  <path d="M25 30 L65 25 L105 35 L100 45 L60 50 L25 45 L25 30 Z" fill="#6B7280"/>
  
  <!-- Capa media-inferior - gris claro -->
  <path d="M30 40 L70 35 L110 45 L105 55 L65 60 L30 55 L30 40 Z" fill="#9CA3AF"/>
  
  <!-- Capa inferior - blanco -->
  <path d="M35 50 L75 45 L115 55 L110 65 L70 70 L35 65 L35 50 Z" fill="#F9FAFB"/>
  
  <!-- Texto IBERTALENTO con outline -->
  <text x="140" y="55" font-family="Arial, sans-serif" font-size="28" font-weight="bold" fill="#F9FAFB" stroke="#374151" stroke-width="2" paint-order="stroke fill">IBERTALENTO</text>
</svg>
