<svg width="400" height="100" viewBox="0 0 400 100" fill="none" xmlns="http://www.w3.org/2000/svg">
  <!-- Banda superior gris oscura -->
  <path d="M20 25 L70 20 L110 30 L105 50 L65 55 L25 50 L20 25 Z" fill="#374151"/>
  
  <!-- Banda inferior blanca/gris claro -->
  <path d="M25 40 L75 35 L115 45 L110 65 L70 70 L30 65 L25 40 Z" fill="#F9FAFB"/>
  
  <!-- Líneas horizontales en la banda superior -->
  <path d="M30 30 L100 27 L105 35 L35 38 L30 30 Z" fill="#4B5563" opacity="0.6"/>
  <path d="M30 35 L100 32 L105 40 L35 43 L30 35 Z" fill="#6B7280" opacity="0.4"/>
  
  <!-- Líneas horizontales en la banda inferior -->
  <path d="M35 45 L105 42 L110 50 L40 53 L35 45 Z" fill="#E5E7EB" opacity="0.8"/>
  <path d="M35 50 L105 47 L110 55 L40 58 L35 50 Z" fill="#D1D5DB" opacity="0.6"/>
  
  <!-- Texto IBERTALENTO con outline -->
  <text x="140" y="55" font-family="Arial, sans-serif" font-size="28" font-weight="bold" fill="#F9FAFB" stroke="#374151" stroke-width="2">IBERTALENTO</text>
</svg>
