<svg version="1.1" id="Layer_1" xmlns="http://www.w3.org/2000/svg" xmlns:xlink="http://www.w3.org/1999/xlink" x="0px" y="0px"
	 width="100%" viewBox="0 0 1248 832" enable-background="new 0 0 1248 832" xml:space="preserve">
<path fill="none" opacity="1.000000" stroke="none" 
	d="
M1159.000000,833.000000 
	C772.712952,833.000000 386.925934,833.000000 1.069441,833.000000 
	C1.069441,555.746277 1.069441,278.492493 1.069441,1.119354 
	C416.999969,1.119354 833.000000,1.119354 1248.997070,1.115423 
	C1248.994141,278.407654 1248.994141,555.703857 1248.991211,833.000000 
	C1219.158813,833.000000 1189.329468,833.000000 1159.000000,833.000000 
M346.450073,338.008789 
	C346.450073,338.008789 346.429962,338.444794 346.420929,338.463531 
	C346.420929,338.463531 346.400574,338.456543 345.823242,338.592499 
	C345.239868,339.114716 344.656525,339.636963 343.377106,340.169098 
	C335.462006,346.071747 326.513641,349.680023 316.833527,351.052460 
	C304.811584,352.756927 292.719604,354.004517 280.634521,355.216980 
	C264.073944,356.878418 247.334702,357.667389 231.716003,364.184998 
	C219.461533,369.298676 209.349777,377.224609 207.825943,391.246918 
	C206.576859,402.740753 207.490158,414.469513 207.354431,426.681061 
	C207.387390,427.074280 207.420349,427.467499 207.197876,428.260834 
	C207.498718,428.276459 207.799561,428.292084 208.773483,428.112152 
	C219.424957,418.363281 232.128967,412.983337 246.258224,410.921936 
	C256.454926,409.434296 266.703156,408.276001 276.947784,407.146515 
	C292.965790,405.380615 309.214630,404.951843 324.588043,399.404419 
	C335.092560,395.613922 344.202637,389.933533 347.472595,378.339630 
	C351.456207,364.215424 349.222076,349.788055 349.776886,334.240173 
	C348.425507,335.779999 348.011597,336.251617 347.112701,336.820770 
	C346.806274,337.032990 346.684753,337.322723 346.450073,338.008789 
M209.561386,489.831451 
	C209.825653,489.384308 210.089920,488.937164 210.462097,488.374023 
	C210.462097,488.374023 210.490173,488.218140 211.167099,488.174225 
	C220.014847,481.485138 229.612061,476.057373 240.638794,474.392517 
	C255.536163,472.143219 270.606384,471.046234 285.513031,468.848419 
	C298.272430,466.967224 311.123901,465.032562 323.534698,461.652832 
	C336.274384,458.183533 346.147217,449.764679 348.277557,436.274445 
	C350.204254,424.073761 349.567841,411.467804 349.969604,399.037567 
	C349.972290,398.954315 348.678253,398.829163 347.407135,399.119171 
	C345.278778,401.108582 343.150452,403.097961 340.434174,405.018524 
	C339.921387,405.309418 339.408569,405.600281 338.135315,405.860443 
	C333.831940,407.634033 329.528564,409.407623 324.410034,411.243774 
	C323.919098,411.472321 323.428162,411.700867 322.448120,411.758362 
	C321.819275,412.016632 321.190399,412.274902 319.971222,412.575500 
	C319.607452,412.723969 319.243683,412.872437 318.571167,412.773254 
	C318.110657,412.954376 317.650177,413.135498 316.379822,413.311584 
	C306.150421,414.607422 295.943481,416.129639 285.686615,417.149139 
	C267.640839,418.942841 249.388885,419.596100 232.209518,426.208679 
	C218.257080,431.579163 208.038513,440.685852 206.946793,456.558167 
	C206.275528,466.317413 207.040314,476.175415 206.959534,486.671356 
	C207.047211,487.131622 207.134888,487.591888 207.091736,488.672577 
	C207.292908,489.321747 207.494080,489.970947 207.695251,490.620117 
	C208.025757,490.379486 208.356262,490.138855 208.827469,490.097931 
	C208.827469,490.097931 209.057556,490.015930 209.561386,489.831451 
M893.150635,429.454529 
	C885.405151,416.453552 877.698303,403.429169 869.851868,390.489349 
	C869.100525,389.250183 867.523987,387.787445 866.254700,387.712555 
	C860.976990,387.401001 855.670227,387.581573 850.281006,387.581573 
	C850.281006,412.238892 850.281006,436.314087 850.281006,460.574219 
	C855.337280,460.574219 860.095947,460.574219 865.514648,460.574219 
	C865.514648,445.424896 865.514648,430.466858 865.514648,415.508820 
	C867.157715,416.135101 867.787476,416.988739 868.334717,417.892395 
	C876.260315,430.978668 884.142090,444.091736 892.138428,457.134613 
	C893.019958,458.572601 894.466919,460.574677 895.779663,460.677307 
	C901.007324,461.085815 906.285767,460.845612 911.524658,460.845612 
	C911.524658,436.043182 911.524658,411.991516 911.524658,387.873108 
	C906.118835,387.873108 901.040894,387.873108 896.030518,387.873108 
	C896.030518,403.158264 896.030518,418.128021 896.030518,434.423798 
	C894.823059,432.298523 894.207520,431.215149 893.150635,429.454529 
M457.203674,460.597504 
	C460.153717,460.122894 463.164490,459.881226 466.042480,459.130402 
	C475.036133,456.784302 479.968964,451.135956 480.867340,442.500916 
	C481.773010,433.796143 478.588440,428.352203 469.978912,423.790924 
	C469.621338,423.601440 469.462769,423.036316 469.212738,422.648163 
	C476.840729,417.511505 479.425903,411.529175 477.839020,402.547852 
	C476.537109,395.179260 471.977905,389.955200 464.854950,389.175720 
	C452.258270,387.797272 439.515839,387.750946 426.914062,387.150879 
	C426.914062,412.439728 426.914062,436.489502 426.914062,460.643616 
	C436.981567,460.643616 446.624420,460.643616 457.203674,460.597504 
M976.819763,425.372284 
	C977.477966,429.958282 977.655945,434.677856 978.887390,439.104401 
	C982.171326,450.908936 989.736145,459.019531 1001.843384,461.615906 
	C1014.634949,464.359070 1026.715576,462.169739 1035.442749,451.600189 
	C1046.676025,437.995575 1047.523560,422.355591 1041.266235,406.491669 
	C1032.000122,382.999207 1000.868042,378.345642 984.866028,397.842804 
	C978.556458,405.530609 976.865295,414.815979 976.819763,425.372284 
M551.963440,460.581543 
	C556.915771,460.581543 561.868103,460.581543 567.343872,460.581543 
	C567.343872,451.631104 567.343872,442.901703 567.343872,434.359467 
	C572.658936,432.648193 575.467590,434.416168 577.476624,439.013672 
	C580.267395,445.400177 583.606567,451.554352 586.892700,457.710999 
	C587.570374,458.980682 588.994324,460.648590 590.163269,460.722290 
	C595.356445,461.049835 600.581970,460.864349 606.600342,460.864349 
	C600.753479,450.091888 595.397888,440.224487 589.905823,430.105682 
	C590.914490,429.473907 591.748413,428.996674 592.535400,428.451630 
	C600.922180,422.643402 603.258118,414.334106 601.788086,404.791016 
	C600.448730,396.096863 594.586060,389.701508 585.046814,388.830322 
	C573.885193,387.811005 562.559082,388.591980 551.242859,388.591980 
	C551.242859,412.087708 551.242859,436.040466 551.963440,460.581543 
M663.864624,460.867950 
	C667.679993,460.867950 671.495300,460.867950 675.618408,460.867950 
	C676.890198,456.314911 677.890015,451.943878 679.414673,447.764191 
	C679.867065,446.523956 681.764343,445.054840 683.052917,445.002472 
	C689.704773,444.731995 696.382324,444.714935 703.030396,445.034973 
	C704.421509,445.101929 706.407959,446.690216 706.943665,448.043152 
	C708.579712,452.175690 709.642273,456.535248 710.865662,460.599396 
	C716.619873,460.599396 721.880737,460.599396 727.479797,460.599396 
	C727.035645,459.008087 726.737732,457.733063 726.325867,456.495972 
	C719.866699,437.093414 713.361938,417.706024 706.934509,398.292969 
	C703.388123,387.581543 703.444092,387.563568 691.875183,387.486359 
	C690.542236,387.477478 689.195374,387.576416 687.879517,387.419464 
	C685.054138,387.082489 683.859985,388.353363 682.971802,391.021301 
	C678.875732,403.325531 674.485962,415.531586 670.277344,427.798889 
	C666.566528,438.615509 662.956055,449.466522 659.196655,460.612518 
	C660.732910,460.720367 661.857178,460.799286 663.864624,460.867950 
M791.021851,414.500000 
	C791.021851,429.756958 791.021851,445.013885 791.021851,460.379700 
	C807.054382,460.379700 822.564819,460.379700 838.003540,460.379700 
	C838.003540,455.777710 838.003540,451.568207 838.003540,446.892487 
	C827.671692,446.892487 817.775330,446.892487 807.741455,446.892487 
	C807.741455,441.195923 807.741455,435.985046 807.741455,430.415039 
	C816.867859,430.415039 825.615723,430.415039 834.413330,430.415039 
	C834.413330,425.850159 834.413330,421.660583 834.413330,417.053040 
	C825.201660,417.053040 816.441223,417.053040 807.470215,417.053040 
	C807.470215,411.559845 807.470215,406.499939 807.470215,400.886475 
	C817.277283,400.886475 826.812622,400.886475 836.331848,400.886475 
	C836.331848,396.234436 836.331848,392.140106 836.331848,387.833954 
	C821.130249,387.833954 806.220642,387.833954 791.021362,387.833954 
	C791.021362,396.561798 791.021362,405.030914 791.021851,414.500000 
M531.204590,401.085358 
	C533.330688,401.085358 535.456787,401.085358 537.728271,401.085358 
	C537.728271,396.405792 537.728271,392.199799 537.728271,387.875977 
	C522.625671,387.875977 507.870911,387.875977 493.085449,387.875977 
	C493.085449,412.316345 493.085449,436.499146 493.085449,460.679108 
	C508.556458,460.679108 523.667603,460.679108 538.939941,460.679108 
	C538.939941,456.216339 538.939941,451.962311 538.939941,447.136688 
	C528.911743,447.136688 519.179016,447.136688 509.321472,447.136688 
	C509.321472,441.337524 509.321472,436.116425 509.321472,430.312073 
	C518.411743,430.312073 527.140259,430.312073 535.730957,430.312073 
	C535.730957,425.667053 535.730957,421.622498 535.730957,417.164673 
	C526.716187,417.164673 518.133423,417.164673 509.407410,417.164673 
	C509.407410,411.546783 509.407410,406.364014 509.407410,401.088226 
	C516.638794,401.088226 523.457458,401.088226 531.204590,401.085358 
M928.675781,401.090546 
	C931.925354,401.090546 935.174988,401.090546 938.953003,401.090546 
	C938.953003,421.409546 938.953003,440.931854 938.953003,460.429871 
	C944.431580,460.429871 949.352905,460.429871 954.743958,460.429871 
	C954.743958,440.553375 954.743958,420.994171 954.743958,400.933807 
	C961.267334,400.933807 967.320923,400.933807 973.407837,400.933807 
	C973.407837,396.323364 973.407837,392.223694 973.407837,387.981262 
	C955.626221,387.981262 938.122009,387.981262 920.531494,387.981262 
	C920.531494,392.476074 920.531494,396.564178 920.531494,401.085632 
	C923.119324,401.085632 925.422546,401.085632 928.675781,401.090546 
M644.193237,405.357452 
	C644.264099,404.066437 644.334961,402.775421 644.426025,401.115692 
	C650.564453,401.115692 656.505493,401.115692 662.543579,401.115692 
	C662.543579,396.495209 662.543579,392.262299 662.543579,387.914673 
	C644.865723,387.914673 627.509277,387.914673 610.000610,387.914673 
	C610.000610,392.409210 610.000610,396.515228 610.000610,401.199585 
	C616.077393,401.199585 621.958984,401.199585 628.302917,401.199585 
	C628.302917,421.323853 628.302917,440.873901 628.302917,460.482910 
	C633.831665,460.482910 638.868164,460.482910 644.193665,460.482910 
	C644.193665,442.214783 644.193665,424.257416 644.193237,405.357452 
M754.081787,412.500519 
	C754.081787,404.388000 754.081787,396.275513 754.081787,387.915771 
	C748.561157,387.915771 743.481140,387.915771 738.316650,387.915771 
	C738.316650,412.252228 738.316650,436.303131 738.316650,460.543152 
	C753.131958,460.543152 767.680847,460.543152 782.392334,460.543152 
	C782.392334,455.913544 782.392334,451.575104 782.392334,446.767212 
	C772.857300,446.767212 763.768555,446.767212 754.079407,446.767212 
	C754.079407,435.367706 754.079407,424.434082 754.081787,412.500519 
M395.785187,416.499634 
	C395.785187,431.128632 395.785187,445.757599 395.785187,460.490479 
	C401.638611,460.490479 407.054169,460.490479 412.670135,460.490479 
	C412.670135,436.173737 412.670135,412.121246 412.670135,387.851257 
	C406.985687,387.851257 401.577332,387.851257 395.788635,387.851257 
	C395.788635,397.234711 395.788635,406.367157 395.785187,416.499634 
z"/>
<path fill="#D41714" opacity="1.000000" stroke="none" 
	d="
M344.073181,340.159210 
	C344.656525,339.636963 345.239868,339.114716 346.284210,338.986847 
	C346.477509,343.330902 346.315796,347.291168 345.924500,351.228577 
	C343.846985,372.132904 331.030701,385.010834 313.914429,389.490204 
	C297.366425,393.820892 280.100281,395.502075 263.092316,397.948944 
	C250.874191,399.706665 238.723480,401.502594 228.378220,408.861938 
	C221.672150,413.632477 215.293594,418.863434 208.800354,423.474304 
	C209.553040,417.641815 209.773560,412.094910 211.121414,406.836975 
	C212.791580,400.321655 214.405685,393.452576 217.799149,387.787689 
	C225.298950,375.267883 237.765060,369.394897 251.623154,367.117767 
	C269.269867,364.218109 287.096680,362.432831 304.793274,359.812195 
	C316.666321,358.053955 328.374207,355.330933 338.062225,347.630127 
	C340.503143,345.689911 342.092499,342.678436 344.073181,340.159210 
z"/>
<path fill="#070707" opacity="1.000000" stroke="none" 
	d="
M893.371338,429.793152 
	C894.207520,431.215149 894.823059,432.298523 896.030518,434.423798 
	C896.030518,418.128021 896.030518,403.158264 896.030518,387.873108 
	C901.040894,387.873108 906.118835,387.873108 911.524658,387.873108 
	C911.524658,411.991516 911.524658,436.043182 911.524658,460.845612 
	C906.285767,460.845612 901.007324,461.085815 895.779663,460.677307 
	C894.466919,460.574677 893.019958,458.572601 892.138428,457.134613 
	C884.142090,444.091736 876.260315,430.978668 868.334717,417.892395 
	C867.787476,416.988739 867.157715,416.135101 865.514648,415.508820 
	C865.514648,430.466858 865.514648,445.424896 865.514648,460.574219 
	C860.095947,460.574219 855.337280,460.574219 850.281006,460.574219 
	C850.281006,436.314087 850.281006,412.238892 850.281006,387.581573 
	C855.670227,387.581573 860.976990,387.401001 866.254700,387.712555 
	C867.523987,387.787445 869.100525,389.250183 869.851868,390.489349 
	C877.698303,403.429169 885.405151,416.453552 893.371338,429.793152 
z"/>
<path fill="#070707" opacity="1.000000" stroke="none" 
	d="
M456.735474,460.620544 
	C446.624420,460.643616 436.981567,460.643616 426.914062,460.643616 
	C426.914062,436.489502 426.914062,412.439728 426.914062,387.150879 
	C439.515839,387.750946 452.258270,387.797272 464.854950,389.175720 
	C471.977905,389.955200 476.537109,395.179260 477.839020,402.547852 
	C479.425903,411.529175 476.840729,417.511505 469.212738,422.648163 
	C469.462769,423.036316 469.621338,423.601440 469.978912,423.790924 
	C478.588440,428.352203 481.773010,433.796143 480.867340,442.500916 
	C479.968964,451.135956 475.036133,456.784302 466.042480,459.130402 
	C463.164490,459.881226 460.153717,460.122894 456.735474,460.620544 
M442.724640,433.625488 
	C442.724640,438.066803 442.724640,442.508118 442.724640,447.045166 
	C448.040192,447.045166 452.982666,447.377533 457.857513,446.946075 
	C462.208191,446.561005 464.651031,443.603180 464.680145,439.181854 
	C464.707733,434.993134 463.024475,431.457153 458.547943,430.814178 
	C453.851166,430.139557 449.040375,430.180115 444.278107,430.153717 
	C443.764618,430.150848 443.242096,431.780731 442.724640,433.625488 
M462.254456,407.781189 
	C460.408051,400.636017 453.637390,398.221436 443.077576,400.955170 
	C443.077576,406.513794 443.077576,412.072876 443.077576,418.044342 
	C446.369476,418.044342 449.321564,418.096527 452.271271,418.033966 
	C459.325623,417.884308 461.588837,415.741486 462.254456,407.781189 
z"/>
<path fill="#070707" opacity="1.000000" stroke="none" 
	d="
M976.817627,424.935364 
	C976.865295,414.815979 978.556458,405.530609 984.866028,397.842804 
	C1000.868042,378.345642 1032.000122,382.999207 1041.266235,406.491669 
	C1047.523560,422.355591 1046.676025,437.995575 1035.442749,451.600189 
	C1026.715576,462.169739 1014.634949,464.359070 1001.843384,461.615906 
	C989.736145,459.019531 982.171326,450.908936 978.887390,439.104401 
	C977.655945,434.677856 977.477966,429.958282 976.817627,424.935364 
M1027.674683,418.148865 
	C1026.814941,415.295105 1026.229004,412.321228 1025.039917,409.612000 
	C1022.384644,403.561798 1017.944946,399.489441 1011.013733,399.392975 
	C1003.737488,399.291748 998.720642,403.041962 996.049500,409.693054 
	C992.449402,418.657104 992.451172,427.841400 995.243347,437.002411 
	C997.522766,444.481598 1002.867615,448.634918 1010.076965,448.893799 
	C1017.432617,449.157928 1023.706482,445.316162 1025.767456,437.621643 
	C1027.362305,431.667358 1027.198364,425.241943 1027.674683,418.148865 
z"/>
<path fill="#070707" opacity="1.000000" stroke="none" 
	d="
M551.603149,460.287354 
	C551.242859,436.040466 551.242859,412.087708 551.242859,388.591980 
	C562.559082,388.591980 573.885193,387.811005 585.046814,388.830322 
	C594.586060,389.701508 600.448730,396.096863 601.788086,404.791016 
	C603.258118,414.334106 600.922180,422.643402 592.535400,428.451630 
	C591.748413,428.996674 590.914490,429.473907 589.905823,430.105682 
	C595.397888,440.224487 600.753479,450.091888 606.600342,460.864349 
	C600.581970,460.864349 595.356445,461.049835 590.163269,460.722290 
	C588.994324,460.648590 587.570374,458.980682 586.892700,457.710999 
	C583.606567,451.554352 580.267395,445.400177 577.476624,439.013672 
	C575.467590,434.416168 572.658936,432.648193 567.343872,434.359467 
	C567.343872,442.901703 567.343872,451.631104 567.343872,460.581543 
	C561.868103,460.581543 556.915771,460.581543 551.603149,460.287354 
M573.429077,421.139221 
	C577.836060,421.176331 582.295715,421.149963 584.400879,416.240875 
	C586.204285,412.035431 586.516296,407.695557 583.108032,404.148651 
	C578.663452,399.523376 572.940552,400.669556 567.638916,400.805389 
	C567.638916,407.877228 567.638916,414.414734 567.638916,421.147705 
	C569.562988,421.147705 571.037231,421.147705 573.429077,421.139221 
z"/>
<path fill="#090909" opacity="1.000000" stroke="none" 
	d="
M663.423035,460.873077 
	C661.857178,460.799286 660.732910,460.720367 659.196655,460.612518 
	C662.956055,449.466522 666.566528,438.615509 670.277344,427.798889 
	C674.485962,415.531586 678.875732,403.325531 682.971802,391.021301 
	C683.859985,388.353363 685.054138,387.082489 687.879517,387.419464 
	C689.195374,387.576416 690.542236,387.477478 691.875183,387.486359 
	C703.444092,387.563568 703.388123,387.581543 706.934509,398.292969 
	C713.361938,417.706024 719.866699,437.093414 726.325867,456.495972 
	C726.737732,457.733063 727.035645,459.008087 727.479797,460.599396 
	C721.880737,460.599396 716.619873,460.599396 710.865662,460.599396 
	C709.642273,456.535248 708.579712,452.175690 706.943665,448.043152 
	C706.407959,446.690216 704.421509,445.101929 703.030396,445.034973 
	C696.382324,444.714935 689.704773,444.731995 683.052917,445.002472 
	C681.764343,445.054840 679.867065,446.523956 679.414673,447.764191 
	C677.890015,451.943878 676.890198,456.314911 675.618408,460.867950 
	C671.495300,460.867950 667.679993,460.867950 663.423035,460.873077 
M686.658936,422.072510 
	C685.716980,425.202332 684.775024,428.332184 683.751953,431.731415 
	C690.122437,431.731415 695.957031,431.731415 702.275024,431.731415 
	C699.304138,421.555206 696.467896,411.840302 693.631653,402.125427 
	C693.304016,402.100800 692.976440,402.076172 692.648804,402.051544 
	C690.717957,408.464935 688.787048,414.878326 686.658936,422.072510 
z"/>
<path fill="#090909" opacity="1.000000" stroke="none" 
	d="
M791.021606,414.000000 
	C791.021362,405.030914 791.021362,396.561798 791.021362,387.833954 
	C806.220642,387.833954 821.130249,387.833954 836.331848,387.833954 
	C836.331848,392.140106 836.331848,396.234436 836.331848,400.886475 
	C826.812622,400.886475 817.277283,400.886475 807.470215,400.886475 
	C807.470215,406.499939 807.470215,411.559845 807.470215,417.053040 
	C816.441223,417.053040 825.201660,417.053040 834.413330,417.053040 
	C834.413330,421.660583 834.413330,425.850159 834.413330,430.415039 
	C825.615723,430.415039 816.867859,430.415039 807.741455,430.415039 
	C807.741455,435.985046 807.741455,441.195923 807.741455,446.892487 
	C817.775330,446.892487 827.671692,446.892487 838.003540,446.892487 
	C838.003540,451.568207 838.003540,455.777710 838.003540,460.379700 
	C822.564819,460.379700 807.054382,460.379700 791.021851,460.379700 
	C791.021851,445.013885 791.021851,429.756958 791.021606,414.000000 
z"/>
<path fill="#070707" opacity="1.000000" stroke="none" 
	d="
M530.740356,401.086792 
	C523.457458,401.088226 516.638794,401.088226 509.407410,401.088226 
	C509.407410,406.364014 509.407410,411.546783 509.407410,417.164673 
	C518.133423,417.164673 526.716187,417.164673 535.730957,417.164673 
	C535.730957,421.622498 535.730957,425.667053 535.730957,430.312073 
	C527.140259,430.312073 518.411743,430.312073 509.321472,430.312073 
	C509.321472,436.116425 509.321472,441.337524 509.321472,447.136688 
	C519.179016,447.136688 528.911743,447.136688 538.939941,447.136688 
	C538.939941,451.962311 538.939941,456.216339 538.939941,460.679108 
	C523.667603,460.679108 508.556458,460.679108 493.085449,460.679108 
	C493.085449,436.499146 493.085449,412.316345 493.085449,387.875977 
	C507.870911,387.875977 522.625671,387.875977 537.728271,387.875977 
	C537.728271,392.199799 537.728271,396.405792 537.728271,401.085358 
	C535.456787,401.085358 533.330688,401.085358 530.740356,401.086792 
z"/>
<path fill="#090909" opacity="1.000000" stroke="none" 
	d="
M928.200745,401.088074 
	C925.422546,401.085632 923.119324,401.085632 920.531494,401.085632 
	C920.531494,396.564178 920.531494,392.476074 920.531494,387.981262 
	C938.122009,387.981262 955.626221,387.981262 973.407837,387.981262 
	C973.407837,392.223694 973.407837,396.323364 973.407837,400.933807 
	C967.320923,400.933807 961.267334,400.933807 954.743958,400.933807 
	C954.743958,420.994171 954.743958,440.553375 954.743958,460.429871 
	C949.352905,460.429871 944.431580,460.429871 938.953003,460.429871 
	C938.953003,440.931854 938.953003,421.409546 938.953003,401.090546 
	C935.174988,401.090546 931.925354,401.090546 928.200745,401.088074 
z"/>
<path fill="#070707" opacity="1.000000" stroke="none" 
	d="
M644.193481,405.828735 
	C644.193665,424.257416 644.193665,442.214783 644.193665,460.482910 
	C638.868164,460.482910 633.831665,460.482910 628.302917,460.482910 
	C628.302917,440.873901 628.302917,421.323853 628.302917,401.199585 
	C621.958984,401.199585 616.077393,401.199585 610.000610,401.199585 
	C610.000610,396.515228 610.000610,392.409210 610.000610,387.914673 
	C627.509277,387.914673 644.865723,387.914673 662.543579,387.914673 
	C662.543579,392.262299 662.543579,396.495209 662.543579,401.115692 
	C656.505493,401.115692 650.564453,401.115692 644.426025,401.115692 
	C644.334961,402.775421 644.264099,404.066437 644.193481,405.828735 
z"/>
<path fill="#A10907" opacity="1.000000" stroke="none" 
	d="
M208.768280,423.888123 
	C215.293594,418.863434 221.672150,413.632477 228.378220,408.861938 
	C238.723480,401.502594 250.874191,399.706665 263.092316,397.948944 
	C280.100281,395.502075 297.366425,393.820892 313.914429,389.490204 
	C331.030701,385.010834 343.846985,372.132904 345.924500,351.228577 
	C346.315796,347.291168 346.477509,343.330902 346.572876,338.918884 
	C346.400574,338.456543 346.420929,338.463531 346.709961,338.549866 
	C347.251892,338.364136 347.504791,338.092041 347.777069,337.537109 
	C347.730164,337.077271 347.663940,336.900269 347.597717,336.723236 
	C348.011597,336.251617 348.425507,335.779999 349.776886,334.240173 
	C349.222076,349.788055 351.456207,364.215424 347.472595,378.339630 
	C344.202637,389.933533 335.092560,395.613922 324.588043,399.404419 
	C309.214630,404.951843 292.965790,405.380615 276.947784,407.146515 
	C266.703156,408.276001 256.454926,409.434296 246.258224,410.921936 
	C232.128967,412.983337 219.424957,418.363281 208.342438,428.000854 
	C207.911407,427.889587 207.453323,427.860718 207.453308,427.860718 
	C207.420349,427.467499 207.387390,427.074280 207.609222,426.219910 
	C208.165451,425.135223 208.466858,424.511658 208.768280,423.888123 
z"/>
<path fill="#F5D47A" opacity="1.000000" stroke="none" 
	d="
M347.989716,398.723572 
	C348.678253,398.829163 349.972290,398.954315 349.969604,399.037567 
	C349.567841,411.467804 350.204254,424.073761 348.277557,436.274445 
	C346.147217,449.764679 336.274384,458.183533 323.534698,461.652832 
	C311.123901,465.032562 298.272430,466.967224 285.513031,468.848419 
	C270.606384,471.046234 255.536163,472.143219 240.638794,474.392517 
	C229.612061,476.057373 220.014847,481.485138 210.720978,487.853302 
	C214.670288,479.022705 221.918945,473.567505 230.378326,468.931763 
	C247.697388,460.184662 266.490295,459.592926 284.776672,457.141449 
	C296.951080,455.509338 309.203796,454.578278 320.593079,449.678192 
	C327.964783,446.506653 334.729645,442.267639 338.438965,434.162170 
	C339.912445,431.580811 341.636505,429.349274 342.206757,426.854004 
	C344.339020,417.523956 346.093536,408.107574 347.989716,398.723572 
z"/>
<path fill="#090909" opacity="1.000000" stroke="none" 
	d="
M754.080566,413.000488 
	C754.079407,424.434082 754.079407,435.367706 754.079407,446.767212 
	C763.768555,446.767212 772.857300,446.767212 782.392334,446.767212 
	C782.392334,451.575104 782.392334,455.913544 782.392334,460.543152 
	C767.680847,460.543152 753.131958,460.543152 738.316650,460.543152 
	C738.316650,436.303131 738.316650,412.252228 738.316650,387.915771 
	C743.481140,387.915771 748.561157,387.915771 754.081787,387.915771 
	C754.081787,396.275513 754.081787,404.388000 754.080566,413.000488 
z"/>
<path fill="#A7730A" opacity="1.000000" stroke="none" 
	d="
M318.879913,413.020905 
	C319.243683,412.872437 319.607452,412.723969 320.526428,412.677094 
	C321.700134,412.495575 322.318665,412.212463 322.937195,411.929382 
	C323.428162,411.700867 323.919098,411.472321 325.050354,411.445679 
	C329.650055,410.576233 333.609436,409.504913 338.702484,408.126831 
	C337.279968,409.641418 336.764587,410.484009 336.014282,410.940399 
	C331.686523,413.572845 327.303284,416.114044 322.546387,418.773987 
	C304.533539,424.252563 286.087982,424.769226 268.127350,428.084900 
	C257.631927,430.022461 247.396042,433.365875 236.706024,436.177429 
	C232.265167,439.000092 227.761932,441.276215 224.134109,444.528717 
	C213.751816,453.836884 210.462830,466.398529 208.973007,479.681396 
	C208.732605,481.824768 207.782379,483.888519 207.160278,485.989075 
	C207.040314,476.175415 206.275528,466.317413 206.946793,456.558167 
	C208.038513,440.685852 218.257080,431.579163 232.209518,426.208679 
	C249.388885,419.596100 267.640839,418.942841 285.686615,417.149139 
	C295.943481,416.129639 306.150421,414.607422 316.922607,413.496826 
	C317.936890,413.461700 318.408417,413.241302 318.879913,413.020905 
z"/>
<path fill="#070707" opacity="1.000000" stroke="none" 
	d="
M395.786926,415.999603 
	C395.788635,406.367157 395.788635,397.234711 395.788635,387.851257 
	C401.577332,387.851257 406.985687,387.851257 412.670135,387.851257 
	C412.670135,412.121246 412.670135,436.173737 412.670135,460.490479 
	C407.054169,460.490479 401.638611,460.490479 395.785187,460.490479 
	C395.785187,445.757599 395.785187,431.128632 395.786926,415.999603 
z"/>
<path fill="#E86860" opacity="1.000000" stroke="none" 
	d="
M208.800323,423.474304 
	C208.466858,424.511658 208.165451,425.135223 207.654480,425.926453 
	C207.490158,414.469513 206.576859,402.740753 207.825943,391.246918 
	C209.349777,377.224609 219.461533,369.298676 231.716003,364.184998 
	C247.334702,357.667389 264.073944,356.878418 280.634521,355.216980 
	C292.719604,354.004517 304.811584,352.756927 316.833527,351.052460 
	C326.513641,349.680023 335.462006,346.071747 343.725159,340.164154 
	C342.092499,342.678436 340.503143,345.689911 338.062225,347.630127 
	C328.374207,355.330933 316.666321,358.053955 304.793274,359.812195 
	C287.096680,362.432831 269.269867,364.218109 251.623154,367.117767 
	C237.765060,369.394897 225.298950,375.267883 217.799149,387.787689 
	C214.405685,393.452576 212.791580,400.321655 211.121414,406.836975 
	C209.773560,412.094910 209.553040,417.641815 208.800323,423.474304 
z"/>
<path fill="#DDA51A" opacity="1.000000" stroke="none" 
	d="
M207.059906,486.330200 
	C207.782379,483.888519 208.732605,481.824768 208.973007,479.681396 
	C210.462830,466.398529 213.751816,453.836884 224.134109,444.528717 
	C227.761932,441.276215 232.265167,439.000092 236.738647,436.532654 
	C239.941620,442.927521 239.480011,449.844482 235.400970,452.687439 
	C229.322906,456.923706 226.632935,461.896454 230.051498,469.058502 
	C221.918945,473.567505 214.670288,479.022705 210.382507,487.875244 
	C210.490173,488.218140 210.462097,488.374023 210.103653,488.410431 
	C209.515991,488.969879 209.286789,489.492920 209.057556,490.015930 
	C209.057556,490.015930 208.827469,490.097931 208.552567,489.871277 
	C207.925964,489.113800 207.574265,488.582977 207.222565,488.052155 
	C207.134888,487.591888 207.047211,487.131622 207.059906,486.330200 
z"/>
<path fill="#DDA51A" opacity="1.000000" stroke="none" 
	d="
M322.938782,418.686127 
	C327.303284,416.114044 331.686523,413.572845 336.014282,410.940399 
	C336.764587,410.484009 337.279968,409.641418 338.702484,408.126831 
	C333.609436,409.504913 329.650055,410.576233 325.457947,411.414368 
	C329.528564,409.407623 333.831940,407.634033 338.543030,406.173462 
	C339.214050,406.780365 339.477325,407.074310 339.740601,407.368225 
	C340.167755,406.607941 340.594910,405.847656 341.022095,405.087372 
	C343.150452,403.097961 345.278778,401.108582 347.698425,398.921387 
	C346.093536,408.107574 344.339020,417.523956 342.206757,426.854004 
	C341.636505,429.349274 339.912445,431.580811 338.251923,433.825012 
	C336.698395,432.977844 334.896301,432.426361 334.645325,431.468475 
	C333.454987,426.925781 329.158508,426.296997 326.190613,423.965179 
	C324.665527,422.766937 323.995300,420.480713 322.938782,418.686127 
z"/>
<path fill="#A7730A" opacity="1.000000" stroke="none" 
	d="
M340.728149,405.052948 
	C340.594910,405.847656 340.167755,406.607941 339.740601,407.368225 
	C339.477325,407.074310 339.214050,406.780365 338.923279,406.188812 
	C339.408569,405.600281 339.921387,405.309418 340.728149,405.052948 
z"/>
<path fill="#DDA51A" opacity="1.000000" stroke="none" 
	d="
M322.692657,411.843872 
	C322.318665,412.212463 321.700134,412.495575 320.821594,412.655945 
	C321.190399,412.274902 321.819275,412.016632 322.692657,411.843872 
z"/>
<path fill="#DDA51A" opacity="1.000000" stroke="none" 
	d="
M318.725525,412.897095 
	C318.408417,413.241302 317.936890,413.461700 317.327545,413.499359 
	C317.650177,413.135498 318.110657,412.954376 318.725525,412.897095 
z"/>
<path fill="#A7730A" opacity="1.000000" stroke="none" 
	d="
M207.157150,488.362366 
	C207.574265,488.582977 207.925964,489.113800 208.482208,489.771423 
	C208.356262,490.138855 208.025757,490.379486 207.695251,490.620117 
	C207.494080,489.970947 207.292908,489.321747 207.157150,488.362366 
z"/>
<path fill="#F5D47A" opacity="1.000000" stroke="none" 
	d="
M209.309479,489.923706 
	C209.286789,489.492920 209.515991,488.969879 210.049698,488.468445 
	C210.089920,488.937164 209.825653,489.384308 209.309479,489.923706 
z"/>
<path fill="#E86860" opacity="1.000000" stroke="none" 
	d="
M207.325592,428.060791 
	C207.453323,427.860718 207.911407,427.889587 208.005905,428.098663 
	C207.799561,428.292084 207.498718,428.276459 207.325592,428.060791 
z"/>
<path fill="#D41714" opacity="1.000000" stroke="none" 
	d="
M347.757721,337.819946 
	C347.504791,338.092041 347.251892,338.364136 346.714478,338.540527 
	C346.429962,338.444794 346.450073,338.008789 346.846283,337.922668 
	C347.414246,337.831024 347.585999,337.825470 347.757721,337.819946 
z"/>
<path fill="#E86860" opacity="1.000000" stroke="none" 
	d="
M347.777069,337.537109 
	C347.585999,337.825470 347.414246,337.831024 346.995361,337.763275 
	C346.684753,337.322723 346.806274,337.032990 347.355225,336.772003 
	C347.663940,336.900269 347.730164,337.077271 347.777069,337.537109 
z"/>
<path fill="#F9F9F9" opacity="1.000000" stroke="none" 
	d="
M442.724213,433.139343 
	C443.242096,431.780731 443.764618,430.150848 444.278107,430.153717 
	C449.040375,430.180115 453.851166,430.139557 458.547943,430.814178 
	C463.024475,431.457153 464.707733,434.993134 464.680145,439.181854 
	C464.651031,443.603180 462.208191,446.561005 457.857513,446.946075 
	C452.982666,447.377533 448.040192,447.045166 442.724640,447.045166 
	C442.724640,442.508118 442.724640,438.066803 442.724213,433.139343 
z"/>
<path fill="#F9F9F9" opacity="1.000000" stroke="none" 
	d="
M462.293274,408.199463 
	C461.588837,415.741486 459.325623,417.884308 452.271271,418.033966 
	C449.321564,418.096527 446.369476,418.044342 443.077576,418.044342 
	C443.077576,412.072876 443.077576,406.513794 443.077576,400.955170 
	C453.637390,398.221436 460.408051,400.636017 462.293274,408.199463 
z"/>
<path fill="#F9F9F9" opacity="1.000000" stroke="none" 
	d="
M1027.745361,418.587402 
	C1027.198364,425.241943 1027.362305,431.667358 1025.767456,437.621643 
	C1023.706482,445.316162 1017.432617,449.157928 1010.076965,448.893799 
	C1002.867615,448.634918 997.522766,444.481598 995.243347,437.002411 
	C992.451172,427.841400 992.449402,418.657104 996.049500,409.693054 
	C998.720642,403.041962 1003.737488,399.291748 1011.013733,399.392975 
	C1017.944946,399.489441 1022.384644,403.561798 1025.039917,409.612000 
	C1026.229004,412.321228 1026.814941,415.295105 1027.745361,418.587402 
z"/>
<path fill="#F9F9F9" opacity="1.000000" stroke="none" 
	d="
M572.970276,421.143463 
	C571.037231,421.147705 569.562988,421.147705 567.638916,421.147705 
	C567.638916,414.414734 567.638916,407.877228 567.638916,400.805389 
	C572.940552,400.669556 578.663452,399.523376 583.108032,404.148651 
	C586.516296,407.695557 586.204285,412.035431 584.400879,416.240875 
	C582.295715,421.149963 577.836060,421.176331 572.970276,421.143463 
z"/>
<path fill="#F9F9F9" opacity="1.000000" stroke="none" 
	d="
M686.757568,421.682129 
	C688.787048,414.878326 690.717957,408.464935 692.648804,402.051544 
	C692.976440,402.076172 693.304016,402.100800 693.631653,402.125427 
	C696.467896,411.840302 699.304138,421.555206 702.275024,431.731415 
	C695.957031,431.731415 690.122437,431.731415 683.751953,431.731415 
	C684.775024,428.332184 685.716980,425.202332 686.757568,421.682129 
z"/>
<path fill="#EDBB34" opacity="1.000000" stroke="none" 
	d="
M322.546387,418.773987 
	C323.995300,420.480713 324.665527,422.766937 326.190613,423.965179 
	C329.158508,426.296997 333.454987,426.925781 334.645325,431.468475 
	C334.896301,432.426361 336.698395,432.977844 337.972809,434.053772 
	C334.729645,442.267639 327.964783,446.506653 320.593079,449.678192 
	C309.203796,454.578278 296.951080,455.509338 284.776672,457.141449 
	C266.490295,459.592926 247.697388,460.184662 230.378326,468.931763 
	C226.632935,461.896454 229.322906,456.923706 235.400970,452.687439 
	C239.480011,449.844482 239.941620,442.927521 237.076019,436.432007 
	C247.396042,433.365875 257.631927,430.022461 268.127350,428.084900 
	C286.087982,424.769226 304.533539,424.252563 322.546387,418.773987 
z"/>
</svg>